<mxfile host="drawio-plugin" modified="2022-06-11T19:45:42.534Z" agent="5.0 (Macintosh; Intel Mac OS X 10_15_7) AppleWebKit/537.36 (KHTML, like Gecko) Chrome/97.0.4692.45 Safari/537.36" version="15.5.4" etag="Mj9wYO2k9ACmEZhFli_i" type="embed"><diagram id="_yUJiNKvQv_AQbsj29Bk" name="Page-1"><mxGraphModel dx="915" dy="424" grid="1" gridSize="10" guides="1" tooltips="1" connect="1" arrows="1" fold="1" page="1" pageScale="1" pageWidth="850" pageHeight="1100" math="0" shadow="0"><root><mxCell id="0"/><mxCell id="1" parent="0"/><mxCell id="3" style="edgeStyle=none;html=1;entryX=0;entryY=0.5;entryDx=0;entryDy=0;" parent="1" source="2" target="4" edge="1"><mxGeometry relative="1" as="geometry"><mxPoint x="210" y="160" as="targetPoint"/></mxGeometry></mxCell><mxCell id="2" value="redit comment request" style="rounded=0;whiteSpace=wrap;html=1;" parent="1" vertex="1"><mxGeometry x="40" y="120" width="120" height="80" as="geometry"/></mxCell><mxCell id="4" value="result" style="rounded=0;whiteSpace=wrap;html=1;" parent="1" vertex="1"><mxGeometry x="220" y="120" width="120" height="80" as="geometry"/></mxCell><mxCell id="5" value="5 min" style="rounded=0;whiteSpace=wrap;html=1;" vertex="1" parent="1"><mxGeometry x="80" y="520" width="60" height="60" as="geometry"/></mxCell><mxCell id="6" value="5 min" style="rounded=0;whiteSpace=wrap;html=1;" vertex="1" parent="1"><mxGeometry x="140" y="520" width="60" height="60" as="geometry"/></mxCell><mxCell id="7" value="5 min" style="rounded=0;whiteSpace=wrap;html=1;" vertex="1" parent="1"><mxGeometry x="200" y="520" width="60" height="60" as="geometry"/></mxCell><mxCell id="8" value="5 min" style="rounded=0;whiteSpace=wrap;html=1;" vertex="1" parent="1"><mxGeometry x="260" y="520" width="60" height="60" as="geometry"/></mxCell><mxCell id="9" value="" style="endArrow=classic;html=1;rounded=0;exitX=0.5;exitY=1;exitDx=0;exitDy=0;entryX=0;entryY=0.5;entryDx=0;entryDy=0;edgeStyle=orthogonalEdgeStyle;" edge="1" parent="1" source="5" target="10"><mxGeometry width="50" height="50" relative="1" as="geometry"><mxPoint x="150" y="690" as="sourcePoint"/><mxPoint x="160" y="650" as="targetPoint"/></mxGeometry></mxCell><mxCell id="24" value="r/wallstreetbets" style="edgeLabel;html=1;align=center;verticalAlign=middle;resizable=0;points=[];" vertex="1" connectable="0" parent="9"><mxGeometry x="0.1308" y="-1" relative="1" as="geometry"><mxPoint as="offset"/></mxGeometry></mxCell><mxCell id="10" value="comments" style="rounded=0;whiteSpace=wrap;html=1;" vertex="1" parent="1"><mxGeometry x="280" y="640" width="160" height="60" as="geometry"/></mxCell><mxCell id="16" value="comments" style="rounded=0;whiteSpace=wrap;html=1;" vertex="1" parent="1"><mxGeometry x="280" y="740" width="160" height="60" as="geometry"/></mxCell><mxCell id="19" value="comments" style="rounded=0;whiteSpace=wrap;html=1;" vertex="1" parent="1"><mxGeometry x="280" y="840" width="160" height="60" as="geometry"/></mxCell><mxCell id="21" value="" style="endArrow=classic;html=1;rounded=0;entryX=0;entryY=0.5;entryDx=0;entryDy=0;exitX=0.5;exitY=1;exitDx=0;exitDy=0;edgeStyle=orthogonalEdgeStyle;" edge="1" parent="1" source="5" target="16"><mxGeometry width="50" height="50" relative="1" as="geometry"><mxPoint x="110" y="590" as="sourcePoint"/><mxPoint x="140" y="750" as="targetPoint"/></mxGeometry></mxCell><mxCell id="25" value="r/crypto" style="edgeLabel;html=1;align=center;verticalAlign=middle;resizable=0;points=[];" vertex="1" connectable="0" parent="21"><mxGeometry x="0.3833" y="-1" relative="1" as="geometry"><mxPoint as="offset"/></mxGeometry></mxCell><mxCell id="22" value="" style="endArrow=classic;html=1;rounded=0;exitX=0.5;exitY=1;exitDx=0;exitDy=0;entryX=0;entryY=0.5;entryDx=0;entryDy=0;edgeStyle=orthogonalEdgeStyle;" edge="1" parent="1" source="5" target="19"><mxGeometry width="50" height="50" relative="1" as="geometry"><mxPoint x="120" y="590" as="sourcePoint"/><mxPoint x="170" y="720" as="targetPoint"/></mxGeometry></mxCell><mxCell id="26" value="r/political" style="edgeLabel;html=1;align=center;verticalAlign=middle;resizable=0;points=[];" vertex="1" connectable="0" parent="22"><mxGeometry x="0.5043" y="-3" relative="1" as="geometry"><mxPoint as="offset"/></mxGeometry></mxCell></root></mxGraphModel></diagram></mxfile>